<?xml version="1.0" standalone="no"?>
<!DOCTYPE svg PUBLIC "-//W3C//DTD SVG 20010904//EN"
 "http://www.w3.org/TR/2001/REC-SVG-20010904/DTD/svg10.dtd">
<svg version="1.0" xmlns="http://www.w3.org/2000/svg"
 width="272.000000pt" height="211.000000pt" viewBox="0 0 572.000000 511.000000"
 preserveAspectRatio="xMidYMid meet">

<g transform="translate(0.000000,511.000000) scale(0.100000,-0.100000)"
fill="#000000" stroke="none">
<path d="M4010 4790 c-12 -8 -11 -10 8 -10 12 0 22 5 22 10 0 13 -11 13 -30 0z"/>
<path d="M3864 4781 c17 -7 17 -8 2 -23 -13 -14 -14 -17 -1 -22 23 -8 18 -35
-7 -46 -15 -6 -17 -9 -7 -9 25 -1 54 36 41 52 -6 7 -9 23 -5 35 4 18 1 22 -18
21 -21 0 -22 -1 -5 -8z"/>
<path d="M3929 4769 c-23 -23 -23 -70 1 -77 12 -4 13 -3 2 10 -13 17 -8 43 16
71 21 24 6 21 -19 -4z"/>
<path d="M3990 4760 c0 -5 4 -10 9 -10 16 0 42 -31 35 -42 -3 -5 -16 -13 -28
-18 -20 -9 -20 -9 0 -9 49 -2 59 51 14 74 -17 9 -30 11 -30 5z"/>
<path d="M3949 4731 c8 -5 11 -16 8 -25 -4 -9 -2 -16 3 -16 6 0 10 11 10 25 0
17 -5 25 -17 25 -15 0 -15 -2 -4 -9z"/>
<path d="M1317 4692 c8 -5 13 -41 15 -97 3 -86 4 -90 27 -93 65 -10 106 40 79
95 -12 24 -19 28 -51 27 -37 -1 -37 -1 -37 37 0 34 -3 39 -22 39 -15 0 -19 -3
-11 -8z m99 -106 c8 -33 -3 -64 -26 -71 -30 -9 -40 2 -40 44 0 44 5 51 36 51
17 0 25 -7 30 -24z"/>
<path d="M2878 4688 c7 -7 12 -22 12 -35 0 -19 -5 -23 -30 -23 -58 0 -88 -60
-55 -107 13 -18 25 -22 66 -21 38 1 49 5 44 16 -3 7 -5 52 -5 98 0 80 -1 84
-22 84 -17 0 -19 -3 -10 -12z m10 -120 c-3 -40 -5 -43 -33 -43 -26 0 -30 4
-33 28 -5 43 4 57 38 57 30 0 31 -1 28 -42z"/>
<path d="M925 4680 c-3 -5 1 -10 9 -10 13 0 16 -14 16 -79 0 -67 -3 -80 -17
-84 -10 -3 2 -5 27 -5 25 0 39 2 33 5 -9 3 -13 32 -13 94 0 88 0 89 -24 89
-14 0 -28 -4 -31 -10z"/>
<path d="M1052 4678 c-24 -24 -11 -78 19 -78 27 0 44 37 30 66 -12 26 -30 31
-49 12z m33 -48 c-4 -11 -11 -18 -16 -15 -11 7 -12 48 -2 59 11 11 25 -23 18
-44z"/>
<path d="M1130 4617 c-24 -40 -50 -82 -58 -94 -8 -13 -10 -23 -6 -23 10 1 118
179 112 185 -2 2 -24 -28 -48 -68z"/>
<path d="M3425 4680 c-3 -5 0 -10 8 -10 19 0 27 -22 27 -73 0 -58 -9 -85 -29
-90 -9 -3 7 -5 34 -6 38 0 46 2 33 10 -15 8 -18 25 -18 94 0 83 0 85 -24 85
-14 0 -28 -4 -31 -10z"/>
<path d="M3600 4670 c-15 -15 -20 -33 -20 -73 0 -65 20 -97 60 -97 40 0 60 32
60 97 0 58 -23 93 -60 93 -11 0 -29 -9 -40 -20z m61 -6 c20 -24 17 -120 -4
-141 -16 -16 -18 -16 -34 0 -31 31 -17 157 17 157 4 0 14 -7 21 -16z"/>
<path d="M3734 4678 c-3 -5 2 -8 10 -8 13 0 16 -14 16 -79 0 -67 -3 -80 -17
-84 -10 -3 2 -5 27 -5 25 0 39 2 33 5 -9 3 -13 32 -13 94 l0 89 -26 -2 c-14
-2 -28 -6 -30 -10z"/>
<path d="M4383 4683 c-22 -8 -14 -20 11 -16 46 9 44 -35 -2 -58 l-27 -13 27
-4 c65 -8 59 -72 -9 -90 l-38 -10 38 -1 c68 -2 114 69 66 103 -20 14 -20 16
-5 31 40 40 -4 82 -61 58z"/>
<path d="M4495 4669 c-9 -28 0 -35 20 -15 9 9 29 16 45 16 l29 0 -16 -37 c-8
-21 -26 -59 -39 -85 -28 -55 -28 -58 -10 -58 12 0 33 40 77 153 l19 47 -59 0
c-52 0 -61 -3 -66 -21z"/>
<path d="M4690 4676 c-11 -14 -9 -15 19 -10 27 6 31 4 31 -15 0 -11 -12 -28
-27 -38 l-27 -18 29 -5 c58 -10 39 -82 -20 -82 -14 0 -25 -4 -25 -9 0 -18 66
-9 88 11 29 27 30 80 2 87 -19 5 -20 7 -5 23 9 10 15 29 13 42 -2 18 -10 24
-34 26 -19 2 -36 -3 -44 -12z"/>
<path d="M4824 4669 c-17 -19 -18 -22 -2 -49 14 -25 14 -31 2 -41 -17 -14 -18
-51 -2 -67 22 -22 76 -14 94 14 16 24 16 26 -5 55 -12 16 -17 29 -11 29 16 0
24 49 10 65 -18 22 -64 18 -86 -6z m64 -18 c5 -34 -11 -45 -33 -21 -15 16 -16
22 -5 35 17 21 34 14 38 -14z m5 -109 c-8 -22 -23 -31 -40 -25 -16 6 -17 45
-1 61 16 16 49 -13 41 -36z"/>
<path d="M1611 4648 c-8 -22 -6 -76 5 -125 5 -25 47 -33 60 -11 5 8 2 9 -9 5
-20 -7 -25 0 -32 45 -4 26 -1 39 11 49 9 8 19 13 21 12 1 -2 6 -3 11 -2 4 1
-4 4 -18 8 -16 5 -24 13 -22 24 4 25 -17 21 -27 -5z"/>
<path d="M1708 4650 c-12 -16 -14 -28 -8 -34 6 -6 10 -34 10 -63 0 -50 2 -53
24 -53 14 0 28 5 31 11 4 6 0 9 -11 7 -16 -3 -19 5 -22 49 -2 43 0 52 11 47 8
-3 18 -1 22 5 3 7 -2 11 -14 11 -13 0 -21 8 -23 23 l-3 22 -17 -25z"/>
<path d="M1490 4610 c-41 -41 -14 -110 43 -110 38 0 43 18 6 22 -22 2 -34 10
-40 26 -8 20 -6 22 32 22 43 0 60 19 39 45 -18 21 -56 19 -80 -5z m58 -13 c3
-12 -4 -17 -22 -17 -28 0 -33 9 -14 28 15 15 32 10 36 -11z"/>
<path d="M1801 4604 c-25 -32 -26 -52 -5 -82 15 -22 47 -28 81 -15 13 6 8 9
-22 13 -32 4 -41 10 -43 28 -3 20 1 22 37 22 33 0 41 4 41 18 0 46 -57 56 -89
16z m58 3 c14 -17 4 -27 -26 -27 -25 0 -29 10 -11 28 15 15 23 15 37 -1z"/>
<path d="M1918 4618 c16 -16 16 -105 0 -111 -7 -3 5 -5 27 -5 22 0 32 2 22 5
-15 4 -17 13 -15 51 3 40 6 47 26 50 12 2 22 8 22 13 0 13 -24 11 -38 -3 -9
-9 -12 -9 -12 0 0 7 -10 12 -22 12 -17 0 -19 -3 -10 -12z"/>
<path d="M2106 4608 c-44 -62 13 -137 74 -98 11 7 8 10 -15 10 -64 0 -76 47
-13 52 46 3 57 17 33 42 -23 23 -61 20 -79 -6z m62 -11 c3 -12 -4 -17 -22 -17
-27 0 -37 24 -13 33 19 8 32 2 35 -16z"/>
<path d="M2217 4618 c6 -7 18 -37 28 -65 11 -29 24 -53 30 -53 7 0 17 19 24
43 7 23 19 52 27 65 14 21 13 22 -13 22 -18 0 -23 -3 -15 -8 9 -7 10 -16 1
-43 -7 -19 -15 -38 -19 -42 -9 -10 -33 70 -25 83 4 6 -6 10 -21 10 -20 0 -24
-3 -17 -12z"/>
<path d="M2370 4610 c-25 -25 -26 -72 -2 -93 20 -19 67 -23 77 -7 4 6 -6 10
-24 10 -20 0 -34 7 -41 19 -15 29 -13 31 30 31 44 0 61 19 40 45 -18 21 -56
19 -80 -5z m58 -13 c3 -12 -4 -17 -22 -17 -28 0 -33 9 -14 28 15 15 32 10 36
-11z"/>
<path d="M2488 4618 c16 -16 16 -105 0 -111 -7 -3 3 -6 22 -6 22 0 30 2 22 8
-9 5 -12 24 -10 52 2 37 7 45 26 47 12 2 22 8 22 13 0 13 -24 11 -38 -3 -9 -9
-12 -9 -12 0 0 7 -10 12 -22 12 -17 0 -19 -3 -10 -12z"/>
<path d="M2590 4613 c5 -10 18 -41 29 -70 16 -46 17 -54 4 -72 -8 -12 -21 -21
-29 -21 -8 0 -12 -4 -9 -10 18 -30 47 3 80 92 16 40 32 79 38 86 7 9 2 12 -19
12 -19 0 -24 -3 -16 -8 9 -7 10 -16 1 -43 -7 -19 -15 -38 -19 -42 -9 -10 -33
70 -25 83 3 6 -5 10 -19 10 -22 0 -25 -3 -16 -17z"/>
<path d="M2964 4616 c-11 -8 -15 -18 -10 -23 5 -4 11 -2 13 5 6 17 40 15 47
-3 3 -10 -1 -18 -12 -21 -36 -11 -47 -22 -50 -47 -3 -25 -1 -26 45 -25 49 1
49 2 46 32 -10 88 -13 96 -37 96 -12 0 -31 -6 -42 -14z m54 -73 c-4 -23 -48
-31 -48 -10 0 9 6 18 13 20 25 11 38 7 35 -10z"/>
<path d="M3072 4617 c19 -20 52 -123 45 -141 -4 -9 -16 -20 -28 -25 -17 -6
-19 -10 -9 -16 19 -12 44 23 76 108 15 39 32 75 38 79 6 4 -1 8 -16 8 -20 0
-26 -4 -22 -15 3 -8 0 -31 -7 -52 l-12 -38 -14 34 c-8 19 -12 43 -10 53 4 14
-1 18 -25 18 -24 0 -27 -2 -16 -13z"/>
<path d="M4140 4610 c0 -6 28 -10 65 -10 37 0 65 4 65 10 0 6 -28 10 -65 10
-37 0 -65 -4 -65 -10z"/>
<path d="M1144 4566 c-9 -38 4 -68 28 -64 25 4 38 35 27 66 -11 30 -47 29 -55
-2z m36 -21 c0 -19 -4 -35 -10 -35 -5 0 -10 16 -10 35 0 19 5 35 10 35 6 0 10
-16 10 -35z"/>
<path d="M4140 4560 c0 -6 28 -10 65 -10 37 0 65 4 65 10 0 6 -28 10 -65 10
-37 0 -65 -4 -65 -10z"/>
<path d="M3530 4516 c0 -9 7 -16 16 -16 9 0 14 5 12 12 -6 18 -28 21 -28 4z"/>
<path d="M4625 4521 c-7 -12 12 -24 25 -16 11 7 4 25 -10 25 -5 0 -11 -4 -15
-9z"/>
<path d="M3918 4368 c10 -13 10 -19 -3 -32 -15 -14 -15 -16 -1 -16 25 0 19
-39 -6 -50 -15 -6 -17 -9 -7 -9 23 -1 53 35 42 51 -4 7 -8 24 -8 37 0 13 -7
26 -15 29 -12 4 -13 3 -2 -10z"/>
<path d="M3986 4354 c-40 -40 -31 -89 15 -82 25 3 34 38 12 45 -7 3 -9 -3 -6
-16 4 -15 1 -21 -11 -21 -24 0 -20 49 6 77 30 32 17 29 -16 -3z"/>
<path d="M4063 4373 c-20 -7 -15 -37 7 -51 28 -17 25 -39 -7 -50 -16 -6 -22
-11 -15 -11 24 -2 52 19 52 39 0 10 -10 26 -22 34 -23 17 -23 17 7 34 20 12 3
16 -22 5z"/>
<path d="M2885 4283 c-6 -2 -9 -19 -7 -38 4 -33 2 -35 -25 -35 -38 0 -63 -27
-63 -68 0 -46 22 -62 78 -57 26 2 49 4 51 4 2 1 -1 7 -7 14 -6 7 -10 49 -9 96
2 84 0 91 -18 84z m-5 -139 c0 -40 -2 -44 -25 -44 -23 0 -45 24 -45 49 0 19
39 51 55 45 10 -4 15 -20 15 -50z"/>
<path d="M920 4260 c0 -5 7 -10 15 -10 24 0 22 -145 -2 -159 -14 -8 -9 -10 27
-11 34 0 41 3 32 12 -7 7 -12 44 -12 95 l0 83 -30 0 c-16 0 -30 -4 -30 -10z"/>
<path d="M1044 4243 c-13 -51 36 -85 57 -40 8 18 8 30 0 46 -17 30 -49 27 -57
-6z m41 -33 c-4 -11 -11 -18 -16 -15 -11 7 -12 48 -2 59 11 11 25 -23 18 -44z"/>
<path d="M1130 4198 c-24 -40 -50 -84 -59 -98 -10 -14 -11 -21 -4 -17 15 10
116 178 110 183 -2 3 -24 -28 -47 -68z"/>
<path d="M3434 4244 c-37 -55 -11 -164 39 -164 42 0 67 36 67 95 0 85 -68 129
-106 69z m66 -3 c15 -28 12 -114 -4 -136 -33 -45 -69 44 -47 116 13 42 34 51
51 20z"/>
<path d="M3626 4254 c-19 -18 -21 -55 -4 -72 7 -7 23 -12 38 -11 24 0 24 1 4
9 -37 15 -41 61 -7 74 24 10 43 -13 43 -51 0 -43 -21 -85 -57 -112 -15 -11
-22 -21 -15 -21 7 0 31 17 53 38 51 47 64 107 30 141 -25 25 -63 27 -85 5z"/>
<path d="M3766 4254 c-32 -31 -11 -84 32 -83 15 0 20 3 12 6 -38 13 -46 65
-13 77 30 12 45 -15 40 -68 -4 -41 -11 -55 -41 -83 -19 -18 -31 -33 -25 -33 7
0 31 20 55 44 36 35 44 50 44 80 0 63 -65 100 -104 60z"/>
<path d="M4426 4248 c-10 -13 -16 -43 -16 -73 0 -62 20 -95 59 -95 32 0 56 23
66 63 9 35 -2 92 -21 112 -23 23 -70 19 -88 -7z m63 -2 c16 -19 22 -94 10
-123 -10 -28 -35 -30 -49 -4 -13 26 -13 84 2 116 13 29 21 31 37 11z"/>
<path d="M4615 4240 c-37 -72 -3 -164 58 -158 42 4 59 38 54 105 -4 63 -19 83
-63 83 -27 0 -36 -6 -49 -30z m85 -64 c0 -82 -52 -104 -65 -27 -7 41 -1 76 18
100 18 22 47 -23 47 -73z"/>
<path d="M4767 4263 c-14 -14 -6 -19 24 -15 28 4 30 2 27 -19 -1 -13 -13 -28
-25 -34 -31 -13 -29 -23 5 -27 54 -6 34 -78 -22 -78 -14 0 -28 -4 -31 -10 -12
-19 62 -10 89 11 31 24 36 73 9 88 -15 8 -16 12 -5 22 17 18 15 56 -4 63 -21
8 -59 8 -67 -1z"/>
<path d="M1317 4198 c6 -7 18 -37 28 -66 19 -58 35 -63 49 -14 12 41 19 40 35
-4 17 -46 31 -40 49 22 7 27 19 55 24 62 8 9 4 12 -18 12 -20 0 -25 -3 -16 -9
11 -7 11 -16 1 -52 l-12 -44 -14 35 c-7 19 -17 44 -22 55 -6 16 -11 10 -26
-35 l-19 -55 -13 44 c-10 36 -10 47 0 53 7 5 -1 8 -22 8 -25 0 -31 -3 -24 -12z"/>
<path d="M1548 4200 c-25 -15 -33 -66 -14 -95 33 -51 116 -19 116 44 0 16 -7
37 -16 45 -17 18 -60 21 -86 6z m60 -9 c19 -12 18 -69 -2 -89 -23 -23 -50 -5
-54 37 -5 48 22 74 56 52z"/>
<path d="M1678 4198 c7 -7 12 -30 12 -53 0 -23 -5 -46 -12 -53 -9 -9 -5 -12
21 -12 28 0 32 2 21 15 -6 8 -11 31 -10 52 4 57 2 63 -22 63 -17 0 -19 -3 -10
-12z"/>
<path d="M1725 4200 c-3 -5 3 -10 14 -10 12 0 21 5 21 10 0 6 -6 10 -14 10 -8
0 -18 -4 -21 -10z"/>
<path d="M1792 4198 c-19 -19 -14 -35 18 -58 17 -12 30 -28 30 -36 0 -20 -37
-18 -49 4 -9 15 -10 14 -11 -6 0 -21 4 -23 38 -20 32 3 37 7 40 30 3 22 -2 30
-22 39 -14 7 -27 18 -30 26 -8 20 21 28 41 12 14 -12 16 -12 11 1 -6 19 -49
25 -66 8z"/>
<path d="M1907 4192 c-10 -10 -17 -35 -17 -56 0 -44 30 -64 77 -50 l28 8 -35
4 c-64 7 -70 49 -7 54 36 3 41 6 39 23 -7 38 -57 48 -85 17z m58 -12 c0 -9
-11 -16 -27 -18 -30 -4 -36 6 -16 26 16 16 43 11 43 -8z"/>
<path d="M2113 4202 c-21 -13 -33 -60 -23 -87 11 -29 52 -42 83 -27 20 10 18
11 -14 11 -34 1 -49 13 -49 42 0 5 18 9 40 9 36 0 40 3 40 24 0 32 -45 48 -77
28z m52 -22 c0 -9 -11 -16 -27 -18 -30 -4 -36 6 -16 26 16 16 43 11 43 -8z"/>
<path d="M2238 4145 c14 -36 29 -65 32 -65 4 0 18 27 30 60 12 32 27 61 34 64
6 2 0 5 -14 5 -22 1 -25 -4 -27 -34 -1 -19 -6 -42 -11 -52 -8 -14 -12 -10 -22
25 -6 23 -8 47 -5 52 3 6 -5 10 -19 10 l-24 0 26 -65z"/>
<path d="M2367 4192 c-21 -23 -22 -76 -1 -96 17 -18 51 -21 74 -6 11 7 8 10
-15 10 -33 0 -55 15 -55 37 0 8 14 13 39 13 45 0 57 11 41 40 -14 26 -61 27
-83 2z m61 -15 c3 -12 -4 -17 -22 -17 -27 0 -37 24 -13 33 19 8 32 2 35 -16z"/>
<path d="M2490 4176 c3 -17 3 -46 -1 -63 -6 -32 -5 -33 25 -32 17 0 25 3 19 6
-14 5 -18 89 -5 96 4 2 19 7 34 11 25 6 27 3 48 -58 23 -70 17 -106 -17 -106
-14 0 -15 -2 -4 -12 18 -19 43 16 77 105 15 39 32 75 38 79 6 4 -1 8 -16 8
-20 0 -25 -4 -21 -18 2 -10 -2 -34 -10 -53 l-14 -34 -12 38 c-7 21 -10 44 -8
52 5 11 -9 13 -67 13 l-73 -1 7 -31z"/>
<path d="M2960 4195 c-7 -8 -10 -18 -6 -22 3 -4 12 2 20 12 15 21 36 12 36
-16 0 -12 -7 -19 -19 -19 -25 0 -53 -28 -49 -49 3 -12 16 -16 56 -17 28 -1 52
3 52 7 0 5 -4 9 -9 9 -6 0 -11 24 -13 53 -3 48 -5 52 -29 55 -14 2 -31 -4 -39
-13z m50 -75 c0 -13 -7 -20 -18 -20 -26 0 -34 11 -21 27 17 20 39 16 39 -7z"/>
<path d="M3068 4197 c6 -7 20 -39 33 -71 l22 -60 -27 -22 c-30 -26 -32 -34
-11 -34 16 0 34 31 75 131 26 66 27 69 8 69 -10 0 -16 -4 -13 -10 8 -13 -16
-93 -25 -83 -4 4 -12 23 -19 42 -9 27 -8 36 1 43 8 5 0 8 -21 8 -26 0 -31 -3
-23 -13z"/>
<path d="M4190 4190 c0 -6 28 -10 65 -10 37 0 65 4 65 10 0 6 -28 10 -65 10
-37 0 -65 -4 -65 -10z"/>
<path d="M1144 4146 c-9 -38 4 -68 29 -64 18 2 22 10 22 43 0 34 -4 40 -22 43
-17 3 -24 -3 -29 -22z m36 -22 c0 -21 -4 -33 -10 -29 -5 3 -10 19 -10 36 0 16
5 29 10 29 6 0 10 -16 10 -36z"/>
<path d="M4217 4143 c18 -2 50 -2 70 0 21 2 7 4 -32 4 -38 0 -55 -2 -38 -4z"/>
<path d="M3560 4095 c0 -9 5 -15 11 -13 6 2 11 8 11 13 0 5 -5 11 -11 13 -6 2
-11 -4 -11 -13z"/>
<path d="M4552 4098 c5 -15 28 -18 29 -3 0 6 -7 12 -17 13 -10 3 -15 -1 -12
-10z"/>
<path d="M4340 3620 c-35 -73 -36 -110 -1 -43 26 49 27 22 2 -74 -72 -278
-226 -521 -495 -781 -438 -422 -1121 -777 -1961 -1017 -285 -82 -588 -150
-855 -194 -69 -12 -137 -23 -152 -26 l-28 -4 0 1024 c0 677 -3 1025 -10 1025
-7 0 -10 -348 -10 -1025 0 -1018 0 -1025 -20 -1025 -11 0 -20 -4 -20 -10 0 -5
9 -10 20 -10 19 0 20 -8 22 -242 l3 -243 2038 -3 2037 -2 0 -55 c0 -30 5 -55
10 -55 6 0 10 25 10 55 l0 55 130 0 c80 0 130 4 130 10 0 6 -50 10 -130 10
l-130 0 0 70 c0 40 -4 70 -10 70 -6 0 -10 -30 -10 -70 l0 -70 -2030 0 -2030 0
0 231 0 231 28 -5 c15 -2 110 -26 212 -51 476 -122 1033 -207 1600 -246 494
-34 1379 -18 1870 35 l45 5 -40 -22 c-68 -38 -14 -33 62 5 l68 35 -53 16 c-83
24 -126 31 -118 18 4 -7 21 -16 39 -20 l32 -9 -35 -7 c-60 -10 -413 -35 -680
-47 -314 -14 -989 -6 -1260 15 -419 34 -775 81 -1125 151 -194 38 -583 130
-593 139 -1 2 9 6 23 8 14 3 25 1 25 -3 0 -5 27 -9 60 -9 64 0 85 19 23 21
-21 0 39 15 132 33 693 135 1284 325 1786 576 403 202 685 397 940 650 254
252 401 491 468 759 25 102 26 104 34 68 5 -20 13 -37 18 -37 5 0 9 3 9 8 0
19 -34 152 -40 152 -3 0 -21 -31 -40 -70z"/>
<path d="M350 1571 c-25 -7 -25 -7 -2 -13 20 -6 22 -12 22 -70 0 -66 -5 -81
-30 -91 -8 -3 5 -6 30 -6 34 -1 41 2 32 11 -7 7 -12 44 -12 95 0 46 -3 83 -7
82 -5 -1 -19 -4 -33 -8z"/>
<path d="M460 1559 c-18 -32 -4 -69 25 -69 18 0 26 7 31 24 7 28 -11 66 -31
66 -8 0 -19 -9 -25 -21z m36 -45 c-11 -29 -30 0 -21 33 7 27 7 28 17 6 6 -12
8 -30 4 -39z"/>
<path d="M532 1493 c-29 -47 -51 -90 -50 -95 2 -4 29 35 60 87 32 52 54 95 50
95 -4 0 -31 -39 -60 -87z"/>
<path d="M562 1468 c-26 -26 -8 -83 24 -76 15 2 19 12 19 43 0 42 -19 57 -43
33z m28 -34 c0 -21 -4 -33 -10 -29 -17 10 -11 65 7 65 2 0 3 -16 3 -36z"/>
<path d="M1180 1470 c0 -5 25 -10 55 -10 30 0 55 5 55 10 0 6 -25 10 -55 10
-30 0 -55 -4 -55 -10z"/>
<path d="M1400 1470 c0 -6 27 -10 60 -10 33 0 60 4 60 10 0 6 -27 10 -60 10
-33 0 -60 -4 -60 -10z"/>
<path d="M1630 1470 c0 -5 25 -10 55 -10 30 0 55 5 55 10 0 6 -25 10 -55 10
-30 0 -55 -4 -55 -10z"/>
<path d="M1850 1470 c0 -5 25 -10 55 -10 30 0 55 5 55 10 0 6 -25 10 -55 10
-30 0 -55 -4 -55 -10z"/>
<path d="M2080 1470 c0 -5 25 -10 55 -10 30 0 55 5 55 10 0 6 -25 10 -55 10
-30 0 -55 -4 -55 -10z"/>
<path d="M2300 1470 c0 -5 25 -10 55 -10 30 0 55 5 55 10 0 6 -25 10 -55 10
-30 0 -55 -4 -55 -10z"/>
<path d="M2520 1470 c0 -6 27 -10 60 -10 33 0 60 4 60 10 0 6 -27 10 -60 10
-33 0 -60 -4 -60 -10z"/>
<path d="M2750 1470 c0 -5 25 -10 55 -10 30 0 55 5 55 10 0 6 -25 10 -55 10
-30 0 -55 -4 -55 -10z"/>
<path d="M2970 1470 c0 -5 25 -10 55 -10 30 0 55 5 55 10 0 6 -25 10 -55 10
-30 0 -55 -4 -55 -10z"/>
<path d="M3200 1470 c0 -5 25 -10 55 -10 30 0 55 5 55 10 0 6 -25 10 -55 10
-30 0 -55 -4 -55 -10z"/>
<path d="M3420 1470 c0 -5 25 -10 55 -10 30 0 55 5 55 10 0 6 -25 10 -55 10
-30 0 -55 -4 -55 -10z"/>
<path d="M3640 1470 c0 -6 27 -10 60 -10 33 0 60 4 60 10 0 6 -27 10 -60 10
-33 0 -60 -4 -60 -10z"/>
<path d="M3870 1470 c0 -5 25 -10 55 -10 30 0 55 5 55 10 0 6 -25 10 -55 10
-30 0 -55 -4 -55 -10z"/>
<path d="M4090 1470 c0 -5 25 -10 55 -10 30 0 55 5 55 10 0 6 -25 10 -55 10
-30 0 -55 -4 -55 -10z"/>
<path d="M4320 1470 c0 -5 25 -10 55 -10 30 0 55 5 55 10 0 6 -25 10 -55 10
-30 0 -55 -4 -55 -10z"/>
<path d="M4540 1470 c0 -5 25 -10 55 -10 30 0 55 5 55 10 0 6 -25 10 -55 10
-30 0 -55 -4 -55 -10z"/>
<path d="M4770 1470 c0 -5 11 -10 25 -10 14 0 25 5 25 10 0 6 -11 10 -25 10
-14 0 -25 -4 -25 -10z"/>
<path d="M4733 676 c13 -10 17 -28 17 -84 0 -59 -3 -71 -17 -75 -10 -3 1 -5
25 -6 39 -1 42 0 28 15 -12 11 -16 36 -16 90 l0 74 -27 0 c-25 -1 -26 -2 -10
-14z"/>
<path d="M5345 630 c-3 -5 -20 -7 -38 -4 -22 4 -28 3 -18 -4 9 -6 12 -26 10
-61 -4 -49 -3 -51 21 -50 14 0 19 3 13 6 -18 7 -16 78 2 93 8 6 19 9 25 5 5
-3 10 -2 10 4 0 15 -18 23 -25 11z"/>
<path d="M4897 618 c6 -7 16 -31 23 -53 7 -22 17 -45 22 -52 7 -8 2 -20 -16
-38 -27 -27 -31 -35 -18 -35 20 1 35 24 67 103 33 85 33 87 12 86 -12 0 -17
-3 -10 -5 8 -4 7 -18 -5 -52 l-16 -47 -15 53 c-12 39 -20 52 -35 52 -13 0 -16
-3 -9 -12z"/>
<path d="M5046 614 c-20 -20 -21 -78 -1 -94 19 -16 63 -16 78 -1 9 9 4 10 -19
5 -21 -4 -34 -1 -43 10 -21 25 -6 46 32 46 41 0 49 7 36 31 -12 23 -61 25 -83
3z m62 -11 c2 -9 -7 -13 -28 -13 -28 0 -31 2 -20 15 15 18 41 16 48 -2z"/>
<path d="M5171 617 c-6 -8 -8 -17 -4 -20 3 -4 11 1 18 10 15 20 47 11 39 -11
-3 -8 -19 -19 -35 -25 -22 -7 -29 -16 -29 -35 0 -24 2 -25 58 -24 31 0 51 3
45 5 -8 3 -13 21 -13 43 0 21 -3 45 -6 54 -8 20 -57 21 -73 3z m46 -84 c-14
-14 -19 -15 -29 -4 -11 10 -9 15 6 27 27 20 47 0 23 -23z"/>
</g>
</svg>
