<?xml version="1.0" standalone="no"?>
<!DOCTYPE svg PUBLIC "-//W3C//DTD SVG 20010904//EN"
 "http://www.w3.org/TR/2001/REC-SVG-20010904/DTD/svg10.dtd">
<svg version="1.0" xmlns="http://www.w3.org/2000/svg"
 width="210.000000pt" height="48.8000000pt" viewBox="0 0 2000.000000 388.000000"
 preserveAspectRatio="xMidYMid meet">

<g transform="translate(0.000000,388.000000) scale(0.100000,-0.100000)"
fill="#000000" stroke="none">
<path d="M1223 3860 c-12 -5 -26 -18 -32 -29 -29 -53 1 -250 57 -374 77 -168
212 -308 380 -392 74 -37 203 -75 255 -75 l29 0 -7 -52 c-4 -29 -9 -55 -11
-57 -2 -2 -27 17 -55 43 -252 227 -572 180 -711 -105 -63 -127 -73 -181 -73
-379 1 -149 4 -189 24 -270 82 -330 259 -652 435 -791 30 -24 55 -47 55 -51 1
-5 -220 -8 -490 -8 -324 0 -506 -4 -537 -11 -26 -6 -89 -31 -141 -56 -170 -81
-298 -240 -346 -428 -19 -76 -19 -234 0 -310 55 -216 217 -392 434 -469 l86
-31 1653 0 1654 0 19 24 c25 30 25 85 0 110 -13 13 -40 22 -78 26 -192 20
-334 108 -412 255 -100 188 -75 413 63 567 87 97 188 146 329 162 65 7 85 14
99 31 24 30 23 85 -2 110 -20 20 -33 20 -766 20 -412 0 -744 4 -742 9 2 4 26
27 53 51 221 189 410 572 456 925 14 107 6 285 -16 370 -25 98 -88 214 -147
273 -166 167 -399 158 -614 -24 l-65 -56 6 39 c23 136 85 252 169 316 55 43
147 76 239 88 87 12 104 20 117 55 12 31 -6 91 -32 105 -26 14 -125 4 -221
-23 -94 -25 -178 -71 -244 -132 -30 -27 -55 -47 -56 -45 -2 2 -15 36 -30 74
-43 114 -96 194 -187 285 -114 113 -220 174 -371 214 -74 19 -199 28 -226 16z
m317 -228 c105 -51 232 -178 283 -282 35 -71 72 -189 62 -198 -9 -9 -113 22
-180 53 -179 85 -326 273 -359 457 l-7 36 63 -14 c35 -8 97 -31 138 -52z m85
-762 c33 -16 95 -60 138 -99 89 -80 126 -96 217 -95 84 1 137 24 219 97 89 80
187 127 262 127 72 0 97 -9 149 -56 86 -78 130 -212 130 -400 0 -187 -44 -362
-144 -570 -122 -254 -282 -428 -422 -458 -19 -4 -57 0 -95 9 -84 22 -128 22
-221 0 l-77 -18 -63 31 c-275 136 -545 732 -499 1103 38 302 195 429 406 329z
m1721 -1777 c-63 -76 -118 -180 -140 -269 -20 -78 -21 -232 -1 -309 22 -89 88
-212 151 -282 l56 -63 -1341 0 -1341 0 0 495 0 495 1336 0 1336 0 -56 -67z
m-2776 -427 l0 -475 -30 9 c-16 5 -53 21 -81 36 -240 131 -327 420 -202 669
37 72 138 169 215 205 108 51 98 98 98 -444z"/>
<path d="M10382 3746 l-77 -74 -3 -230 -3 -229 -52 10 c-29 5 -106 7 -172 4
-206 -10 -337 -61 -445 -173 -109 -113 -152 -245 -151 -464 0 -203 51 -351
155 -456 96 -96 199 -130 363 -122 122 7 193 32 263 95 28 25 54 42 59 37 4
-5 24 -30 45 -56 l37 -48 118 0 c78 0 121 4 129 12 9 9 12 204 12 817 l0 805
-74 73 c-97 95 -104 95 -204 -1z m-124 -813 l42 -16 0 -250 0 -251 -48 -46
c-103 -99 -276 -94 -350 9 -40 55 -57 126 -56 236 1 195 72 305 217 335 53 11
140 3 195 -17z"/>
<path d="M8921 3711 c-78 -76 -101 -104 -101 -125 0 -20 21 -49 81 -111 45
-47 97 -95 116 -106 32 -20 35 -20 61 -4 15 10 66 58 115 106 64 64 87 95 87
113 0 19 -26 52 -100 126 -131 131 -127 131 -259 1z"/>
<path d="M12714 3648 c-115 -118 -104 -54 -104 -623 0 -488 0 -497 -19 -474
-28 36 -87 135 -269 449 -261 452 -357 582 -469 636 -46 23 -72 28 -158 32
-122 5 -169 -7 -190 -48 -13 -25 -15 -137 -15 -793 0 -580 3 -766 12 -775 14
-14 295 -17 315 -4 10 6 13 139 15 588 l3 579 45 -70 c26 -38 115 -189 200
-335 292 -504 418 -675 550 -746 27 -14 62 -19 160 -22 119 -4 126 -3 145 18
20 22 20 37 20 744 l0 721 -47 61 c-46 59 -111 124 -126 124 -4 0 -35 -28 -68
-62z"/>
<path d="M4727 3660 c-99 -18 -148 -69 -166 -173 -14 -80 -15 -1177 -1 -1261
13 -83 39 -127 91 -156 l44 -25 340 0 c324 0 344 1 425 23 287 78 454 254 514
543 36 174 30 419 -15 579 -69 249 -230 390 -520 455 -57 13 -141 18 -369 20
-162 2 -316 0 -343 -5z m594 -318 c126 -36 189 -87 240 -197 70 -151 65 -437
-11 -592 -49 -100 -158 -175 -293 -203 -80 -16 -256 -17 -284 -2 -52 28 -53
38 -53 500 0 294 4 439 11 462 19 52 53 62 199 56 78 -3 150 -12 191 -24z"/>
<path d="M14802 3186 l-77 -74 3 -369 c4 -394 9 -449 56 -542 68 -132 175
-191 353 -191 144 0 242 31 318 101 l46 42 16 -23 c9 -13 29 -38 46 -56 l29
-34 117 0 c78 0 121 4 129 12 9 9 12 142 12 537 l0 526 -75 72 c-50 49 -83 73
-99 73 -27 0 -118 -71 -156 -122 l-25 -33 -5 -335 c-5 -323 -6 -337 -27 -377
-81 -151 -308 -143 -362 13 -10 29 -16 129 -20 377 l-6 339 -72 69 c-51 48
-81 69 -98 69 -18 0 -48 -22 -103 -74z"/>
<path d="M18894 3212 c-21 -16 -60 -52 -86 -80 l-48 -51 0 -501 c0 -327 4
-508 10 -521 10 -18 23 -19 168 -19 110 0 162 4 170 12 9 9 12 107 12 380 0
407 -1 399 64 456 83 73 220 69 289 -7 52 -58 57 -97 57 -479 0 -250 3 -341
12 -350 8 -8 60 -12 170 -12 145 0 158 1 168 19 13 26 13 721 0 816 -12 83
-54 178 -103 232 -140 154 -466 164 -620 19 -21 -20 -39 -36 -40 -36 -2 0 -37
34 -79 75 -42 41 -83 75 -91 75 -8 0 -32 -13 -53 -28z"/>
<path d="M6575 3220 c-79 -12 -199 -57 -235 -87 -22 -18 -32 -41 -46 -97 -9
-40 -14 -81 -11 -89 6 -15 121 -57 156 -57 10 0 52 18 95 40 72 37 83 40 159
40 133 0 196 -44 213 -146 l6 -41 -93 -7 c-282 -21 -475 -86 -553 -189 -52
-67 -70 -125 -70 -222 -1 -125 21 -183 94 -256 47 -47 68 -61 124 -78 163 -50
378 -8 461 91 l27 32 25 -29 c78 -93 60 -85 191 -85 78 0 122 4 130 12 19 19
17 722 -2 821 -33 172 -125 277 -289 329 -72 23 -284 33 -382 18z m335 -723
c0 -115 -65 -196 -173 -219 -112 -24 -197 21 -197 105 0 113 102 174 298 176
l72 1 0 -63z"/>
<path d="M7609 3198 c-77 -56 -139 -126 -139 -158 0 -186 265 -832 393 -958
l38 -37 154 0 154 0 31 30 c131 124 364 637 410 902 12 67 12 73 -9 106 -21
35 -88 96 -143 132 -27 17 -29 17 -55 -1 -117 -75 -159 -134 -167 -232 -13
-156 -81 -384 -163 -547 l-45 -90 -39 76 c-75 150 -150 400 -168 563 -10 87
-12 91 -53 134 -47 48 -130 112 -145 112 -6 0 -30 -14 -54 -32z"/>
<path d="M13685 3215 c-162 -31 -307 -129 -373 -253 -73 -136 -102 -369 -68
-542 55 -281 236 -424 514 -407 110 6 181 33 251 94 l54 47 -7 -73 c-13 -148
-86 -242 -218 -282 -100 -31 -246 -24 -340 16 l-66 28 -44 -26 c-24 -14 -58
-39 -76 -56 -37 -35 -37 -36 5 -138 24 -59 28 -63 77 -82 110 -41 140 -45 301
-46 191 0 276 16 397 77 154 77 259 213 305 393 16 63 18 127 18 600 l0 530
-85 43 c-129 64 -216 83 -405 88 -115 2 -183 -1 -240 -11z m328 -287 l47 -20
0 -235 c0 -259 -1 -266 -64 -321 -45 -40 -104 -56 -183 -49 -86 7 -140 40
-179 109 -28 52 -29 57 -29 194 l0 141 35 69 c40 78 89 119 160 133 61 13 155
3 213 -21z"/>
<path d="M16193 3192 c-26 -22 -68 -60 -92 -86 l-43 -48 7 -76 c25 -271 208
-665 407 -878 l60 -64 -46 -64 c-83 -117 -166 -167 -288 -174 l-77 -5 -56 -58
c-36 -38 -55 -66 -55 -82 0 -33 58 -116 101 -146 31 -21 41 -23 120 -18 210
13 397 127 557 340 205 270 390 713 447 1067 26 162 25 163 -53 239 -38 36
-80 72 -95 80 -24 13 -30 12 -64 -12 -21 -14 -62 -51 -92 -81 l-54 -55 -8 -98
c-8 -109 -27 -210 -65 -353 -30 -111 -82 -250 -94 -250 -14 0 -67 67 -109 137
-80 136 -138 318 -148 467 -6 88 -7 91 -47 135 -50 54 -133 121 -151 121 -7 0
-35 -17 -62 -38z"/>
<path d="M17835 3215 c-229 -50 -372 -195 -421 -425 -23 -110 -15 -341 16
-427 59 -169 179 -276 365 -328 90 -24 320 -31 420 -12 100 19 181 49 233 86
33 25 42 39 57 93 9 35 15 75 13 88 -4 28 -53 56 -123 69 -48 9 -54 8 -141
-36 -81 -40 -102 -46 -176 -50 -179 -11 -294 61 -323 204 l-6 32 298 3 c278 3
301 4 343 24 86 39 120 104 120 224 0 283 -218 473 -538 469 -43 0 -104 -7
-137 -14z m210 -236 c51 -14 110 -73 124 -124 15 -56 14 -72 -9 -95 -19 -19
-33 -20 -216 -20 l-196 0 7 38 c18 97 81 184 143 198 15 3 32 7 37 9 21 7 72
4 110 -6z"/>
<path d="M8882 3188 c-17 -17 -17 -1119 0 -1136 8 -8 60 -12 170 -12 145 0
158 1 168 19 6 13 10 208 10 565 0 482 -2 546 -16 560 -13 13 -43 16 -168 16
-105 0 -156 -4 -164 -12z"/>
<path d="M5827 912 l-27 -28 0 -313 0 -312 63 3 62 3 3 145 c2 132 4 146 24
167 28 30 87 31 114 2 16 -18 19 -41 23 -170 l3 -150 62 3 61 3 3 165 c3 186
-5 216 -67 257 -49 33 -135 32 -185 -2 l-36 -24 0 110 0 111 -31 29 c-17 16
-34 29 -38 29 -4 0 -19 -13 -34 -28z"/>
<path d="M10052 909 l-32 -32 2 -306 3 -306 59 -3 c41 -2 62 1 67 10 5 7 9 76
9 154 0 124 2 143 18 157 23 21 86 22 106 1 23 -22 26 -43 29 -189 l2 -130 62
-3 c60 -3 63 -2 69 23 3 14 5 89 2 168 -4 163 -18 206 -78 239 -47 24 -125 24
-173 -2 l-37 -20 0 100 c0 97 -1 100 -31 135 -17 19 -34 35 -38 35 -4 0 -22
-14 -39 -31z"/>
<path d="M11331 912 l-32 -27 3 -295 3 -294 50 -19 c108 -40 251 -30 318 23
73 57 98 228 47 320 -37 65 -79 90 -154 90 -49 0 -69 -5 -99 -25 l-37 -26 0
114 c0 105 -2 115 -22 134 -37 33 -43 33 -77 5z m247 -335 c43 -45 37 -169
-11 -202 -26 -18 -108 -20 -125 -3 -7 7 -12 43 -12 94 0 104 19 134 84 134 31
0 48 -6 64 -23z"/>
<path d="M16482 907 l-32 -33 0 -277 c0 -220 3 -285 14 -312 8 -19 19 -35 24
-35 5 0 31 9 58 20 l49 21 -3 292 -3 292 -32 33 c-17 17 -34 32 -37 32 -3 0
-20 -15 -38 -33z"/>
<path d="M7206 896 c-20 -18 -36 -40 -36 -48 0 -16 70 -88 86 -88 13 0 84 73
84 86 0 14 -73 84 -87 84 -6 0 -28 -15 -47 -34z"/>
<path d="M8786 896 c-20 -18 -36 -40 -36 -48 0 -16 70 -88 86 -88 13 0 84 73
84 86 0 14 -73 84 -87 84 -6 0 -28 -15 -47 -34z"/>
<path d="M5418 877 c-98 -28 -138 -77 -138 -170 0 -99 26 -130 151 -183 99
-42 119 -58 119 -94 0 -65 -98 -85 -170 -35 -32 22 -43 25 -71 18 -46 -12 -52
-56 -14 -102 76 -90 305 -73 372 27 47 71 39 178 -17 225 -16 14 -66 40 -110
58 -118 49 -143 79 -102 128 24 30 91 31 128 2 16 -13 41 -21 64 -21 34 0 38
3 44 31 3 18 1 42 -7 57 -27 56 -153 86 -249 59z"/>
<path d="M19202 548 c-78 -189 -142 -348 -142 -353 0 -6 20 -18 44 -27 34 -13
47 -14 54 -5 10 13 278 652 284 676 3 15 -54 50 -83 51 -11 0 -56 -98 -157
-342z"/>
<path d="M18605 870 c-6 -10 1 -242 11 -337 l5 -53 50 0 c31 0 51 5 54 13 6
16 21 364 17 377 -5 13 -129 13 -137 0z"/>
<path d="M9719 811 c-22 -23 -29 -39 -29 -70 0 -38 -2 -40 -32 -43 -32 -3 -33
-5 -33 -48 0 -43 1 -45 33 -48 l32 -3 0 -107 c0 -124 12 -175 47 -208 28 -26
93 -39 150 -30 63 11 68 18 51 62 -13 33 -21 40 -49 42 -55 6 -59 14 -59 133
l0 108 48 3 47 3 0 45 0 45 -47 3 -48 3 0 43 c0 33 -6 48 -28 69 -36 34 -47
34 -83 -2z"/>
<path d="M12797 814 c-18 -18 -27 -39 -29 -67 -3 -40 -5 -42 -38 -47 -38 -5
-48 -27 -36 -76 5 -20 13 -24 41 -24 l35 0 0 -131 c0 -173 17 -204 118 -216
50 -6 132 11 132 28 0 5 -7 25 -14 44 -13 31 -19 35 -50 35 -48 0 -56 19 -56
139 l0 100 48 3 47 3 3 48 3 47 -50 0 -51 0 0 43 c0 34 -6 49 -28 70 -35 33
-43 34 -75 1z"/>
<path d="M15367 812 c-21 -21 -27 -38 -27 -70 0 -41 0 -42 -36 -42 l-35 0 3
-47 c3 -46 4 -48 36 -51 l32 -3 0 -127 c0 -137 7 -162 52 -195 33 -25 114 -33
162 -17 40 13 42 18 24 67 -11 30 -16 33 -50 33 -50 0 -58 21 -58 145 l0 94
48 3 47 3 3 48 3 47 -50 0 -51 0 0 43 c0 34 -6 49 -28 70 -35 34 -42 34 -75
-1z"/>
<path d="M4670 645 c-189 -91 -195 -95 -198 -126 -2 -17 1 -36 6 -41 9 -9 389
-188 399 -188 2 0 3 25 1 56 l-3 57 -132 51 c-73 28 -133 54 -133 57 0 3 61
32 135 63 l135 58 0 54 c0 30 -3 54 -7 53 -5 0 -96 -42 -203 -94z"/>
<path d="M19560 687 l0 -55 135 -58 c75 -31 132 -61 128 -65 -5 -4 -64 -30
-133 -57 l-125 -50 -3 -57 c-2 -32 1 -56 6 -54 5 2 96 44 201 93 l191 89 0 41
-1 41 -190 90 c-104 50 -194 92 -199 93 -6 2 -10 -20 -10 -51z"/>
<path d="M6865 687 l-35 -35 0 -183 c0 -101 4 -190 9 -197 5 -9 26 -12 67 -10
l59 3 5 130 c6 169 21 195 109 195 l41 0 0 60 0 60 -32 0 c-41 0 -94 -31 -104
-62 l-8 -23 -5 24 c-4 13 -21 35 -39 49 l-32 24 -35 -35z"/>
<path d="M7471 690 l-31 -29 2 -198 3 -198 63 -3 62 -3 0 144 c0 131 2 147 21
171 27 34 86 37 115 5 16 -18 20 -42 24 -168 l5 -146 63 -3 62 -3 0 173 c0
193 -7 218 -72 258 -49 29 -134 27 -181 -4 -35 -24 -35 -24 -54 -4 -34 38 -47
39 -82 8z"/>
<path d="M17725 687 l-35 -35 0 -183 c0 -101 4 -190 9 -197 5 -9 26 -12 67
-10 l59 3 5 138 c5 137 5 139 33 163 21 18 40 24 73 24 l44 0 0 60 0 60 -30 0
c-42 0 -87 -25 -103 -57 l-14 -26 -7 26 c-3 14 -20 35 -36 47 l-30 22 -35 -35z"/>
<path d="M18079 692 l-34 -30 -3 -168 c-2 -93 -1 -183 3 -202 l6 -33 62 3 62
3 3 145 c2 132 4 146 24 167 28 30 87 31 113 3 16 -18 20 -43 23 -171 l5 -150
61 3 61 3 3 165 c3 187 -5 216 -68 258 -30 20 -45 23 -102 20 -54 -3 -72 -8
-93 -28 l-25 -24 -34 33 -34 33 -33 -30z"/>
<path d="M6411 697 c-64 -24 -84 -87 -33 -105 21 -7 35 -6 57 6 38 19 107 21
128 3 10 -7 17 -23 17 -36 0 -20 -6 -23 -67 -28 -76 -7 -148 -39 -177 -79 -24
-34 -26 -101 -3 -144 34 -66 151 -84 219 -34 l30 22 23 -22 c17 -16 33 -21 66
-18 l44 3 0 165 c0 184 -7 208 -67 252 -28 19 -47 23 -118 25 -50 2 -99 -3
-119 -10z m169 -271 c0 -41 -37 -76 -79 -76 -35 0 -51 17 -51 52 0 23 7 32 33
43 17 8 47 14 65 15 30 0 32 -2 32 -34z"/>
<path d="M8092 699 c-45 -14 -105 -76 -120 -125 -18 -62 -15 -172 7 -220 44
-98 177 -134 263 -72 l31 22 -6 -40 c-13 -78 -97 -118 -191 -90 -44 14 -48 13
-72 -8 -21 -17 -24 -27 -18 -50 10 -40 55 -56 157 -56 71 0 91 4 138 27 66 34
105 87 119 162 5 29 10 134 10 232 l0 179 -42 22 c-35 18 -63 22 -143 25 -55
1 -115 -2 -133 -8z m159 -99 c17 -9 19 -22 19 -105 0 -89 -1 -95 -26 -114 -31
-25 -64 -27 -103 -6 -35 18 -41 32 -41 101 0 62 21 111 53 124 30 12 75 12 98
0z"/>
<path d="M9092 697 c-18 -5 -46 -26 -63 -45 -29 -32 -31 -40 -27 -90 6 -65 29
-89 118 -123 65 -24 80 -35 80 -59 0 -34 -82 -42 -130 -13 -33 19 -44 13 -73
-36 l-18 -31 32 -19 c73 -45 222 -35 280 17 50 45 57 135 13 183 -9 10 -47 30
-85 45 -75 29 -94 45 -86 69 10 24 55 29 94 11 29 -14 39 -14 60 -4 14 7 25
16 24 21 0 4 -1 18 -1 32 0 36 -44 55 -122 54 -35 -1 -78 -6 -96 -12z"/>
<path d="M10652 689 c-82 -41 -117 -117 -110 -235 6 -91 35 -141 100 -173 85
-41 217 -40 280 3 26 17 33 29 33 56 0 29 -4 35 -29 41 -21 6 -39 3 -67 -11
-72 -37 -157 -18 -177 40 l-11 30 110 0 c149 0 179 16 179 95 0 68 -44 134
-107 161 -50 22 -150 18 -201 -7z m156 -85 c14 -10 22 -25 22 -45 l0 -29 -80
0 -80 0 11 27 c6 16 18 36 26 45 20 22 71 23 101 2z"/>
<path d="M11935 691 c-84 -38 -120 -113 -113 -237 6 -127 73 -190 213 -202 76
-6 167 18 190 50 42 61 -13 105 -85 68 -70 -36 -153 -20 -178 35 -7 14 -12 28
-12 30 0 3 47 5 104 5 123 0 160 11 176 51 29 69 -13 159 -91 199 -50 26 -149
26 -204 1z m155 -91 c11 -11 20 -31 20 -45 0 -25 -1 -25 -81 -25 -70 0 -80 2
-75 16 3 9 6 19 6 23 0 4 9 17 20 29 27 29 83 29 110 2z"/>
<path d="M12390 688 c-55 -28 -83 -76 -76 -131 6 -53 28 -74 124 -118 80 -37
94 -53 70 -77 -20 -20 -96 -15 -129 8 l-28 21 -28 -42 -27 -41 23 -19 c34 -28
99 -42 164 -35 99 10 156 54 164 129 9 80 -15 104 -159 161 -30 12 -38 20 -38
39 0 39 51 50 98 21 21 -12 33 -13 55 -5 33 13 36 47 8 82 -17 21 -29 24 -98
27 -66 3 -85 0 -123 -20z"/>
<path d="M13337 682 c-35 -36 -34 -62 3 -196 30 -108 59 -176 88 -208 18 -21
99 -25 125 -5 20 15 61 122 78 204 l13 61 27 -108 c27 -109 43 -149 63 -162
14 -9 88 -10 111 -2 22 9 67 101 103 214 49 154 50 165 12 200 -40 37 -49 37
-82 3 -21 -22 -29 -44 -37 -108 -16 -112 -42 -201 -53 -181 -5 8 -24 77 -43
153 -19 75 -40 140 -47 145 -18 11 -76 10 -97 -2 -11 -5 -22 -26 -25 -47 -12
-66 -68 -253 -77 -253 -9 0 -35 120 -44 205 -5 45 -13 67 -33 88 -33 34 -51
34 -85 -1z"/>
<path d="M14143 695 c-57 -24 -72 -87 -26 -102 21 -7 39 -5 71 9 65 29 132 10
132 -37 0 -20 -6 -23 -62 -28 -160 -15 -233 -90 -196 -201 20 -59 56 -81 133
-81 51 0 70 5 95 24 l32 23 23 -22 c17 -16 33 -21 66 -18 l44 3 0 165 c0 193
-9 219 -85 258 -52 26 -174 30 -227 7z m177 -269 c0 -41 -37 -76 -81 -76 -32
0 -63 26 -55 47 3 8 6 19 6 24 0 15 60 38 98 39 30 0 32 -2 32 -34z"/>
<path d="M14565 680 c-25 -26 -27 -34 -22 -82 7 -76 52 -178 114 -265 l53 -75
-20 -28 c-22 -31 -76 -60 -112 -60 -27 0 -58 -28 -58 -51 0 -8 7 -25 16 -37
12 -17 25 -22 62 -22 112 1 203 81 287 255 58 119 95 235 95 300 0 32 -6 47
-28 68 -15 15 -33 27 -38 27 -6 0 -24 -15 -42 -33 -23 -23 -32 -42 -32 -65 0
-38 -37 -191 -51 -213 -8 -12 -12 -11 -25 6 -30 37 -65 124 -76 187 -8 48 -18
70 -39 91 -37 34 -49 34 -84 -3z"/>
<path d="M15775 695 c-51 -18 -110 -81 -124 -131 -24 -86 -2 -200 46 -246 89
-83 254 -90 341 -14 51 45 72 97 72 184 0 107 -38 171 -122 207 -47 19 -159
19 -213 0z m155 -100 c35 -18 43 -42 43 -119 -1 -79 -24 -110 -83 -114 -76 -6
-110 31 -110 118 0 104 69 157 150 115z"/>
<path d="M16789 687 c-86 -45 -130 -174 -99 -287 19 -69 80 -124 155 -140 115
-24 235 6 255 63 19 56 -36 79 -102 45 -29 -15 -51 -19 -84 -15 -49 5 -94 38
-94 68 0 15 14 18 121 21 113 3 122 5 140 27 47 58 10 176 -70 218 -62 32
-160 32 -222 0z m164 -85 c9 -10 18 -29 19 -43 3 -23 1 -24 -74 -27 -71 -3
-78 -1 -78 16 0 11 9 31 21 46 25 32 86 37 112 8z"/>
<path d="M17273 699 c-36 -11 -63 -43 -63 -75 0 -32 47 -46 85 -26 38 19 107
21 128 3 10 -7 17 -23 17 -36 0 -20 -6 -23 -67 -28 -77 -8 -148 -39 -177 -80
-26 -35 -26 -112 -1 -150 39 -60 153 -75 217 -27 l30 22 23 -22 c17 -16 33
-21 66 -18 l44 3 0 165 c0 184 -7 209 -67 252 -28 19 -47 23 -118 25 -47 1
-99 -2 -117 -8z m167 -273 c0 -41 -37 -76 -79 -76 -35 0 -51 17 -51 52 0 23 7
32 33 43 17 8 47 14 65 15 30 0 32 -2 32 -34z"/>
<path d="M7190 480 l0 -221 63 3 62 3 3 218 2 217 -65 0 -65 0 0 -220z"/>
<path d="M8770 480 l0 -221 63 3 62 3 3 218 2 217 -65 0 -65 0 0 -220z"/>
<path d="M18624 386 l-46 -44 22 -30 c12 -16 35 -39 51 -51 l29 -22 45 42 c25
23 45 46 45 52 0 13 -80 97 -92 97 -4 0 -28 -20 -54 -44z"/>
</g>
</svg>
